<svg xmlns="http://www.w3.org/2000/svg" viewBox="0 0 83 144">
<rect width="83" height="144" fill="#b89a47"/>
<circle cx="13.0" cy="9.2" r="4.4" fill="#ffffff"/>
    <circle cx="7.1" cy="12.6" r="4.4" fill="#ffffff"/>
    <circle cx="7.1" cy="19.4" r="4.4" fill="#ffffff"/>
    <circle cx="13.0" cy="22.8" r="4.4" fill="#ffffff"/>
    <circle cx="18.9" cy="19.4" r="4.4" fill="#ffffff"/>
    <circle cx="18.9" cy="12.6" r="4.4" fill="#ffffff"/>
    <circle cx="13.0" cy="16.0" r="3.4" fill="#b89a47"/>
<circle cx="40.0" cy="9.2" r="4.4" fill="#ffffff"/>
    <circle cx="34.1" cy="12.6" r="4.4" fill="#ffffff"/>
    <circle cx="34.1" cy="19.4" r="4.4" fill="#ffffff"/>
    <circle cx="40.0" cy="22.8" r="4.4" fill="#ffffff"/>
    <circle cx="45.9" cy="19.4" r="4.4" fill="#ffffff"/>
    <circle cx="45.9" cy="12.6" r="4.4" fill="#ffffff"/>
    <circle cx="40.0" cy="16.0" r="3.4" fill="#b89a47"/>
<circle cx="67.0" cy="9.2" r="4.4" fill="#ffffff"/>
    <circle cx="61.1" cy="12.6" r="4.4" fill="#ffffff"/>
    <circle cx="61.1" cy="19.4" r="4.4" fill="#ffffff"/>
    <circle cx="67.0" cy="22.8" r="4.4" fill="#ffffff"/>
    <circle cx="72.9" cy="19.4" r="4.4" fill="#ffffff"/>
    <circle cx="72.9" cy="12.6" r="4.4" fill="#ffffff"/>
    <circle cx="67.0" cy="16.0" r="3.4" fill="#b89a47"/>
<circle cx="13.0" cy="121.2" r="4.4" fill="#ffffff"/>
    <circle cx="7.1" cy="124.6" r="4.4" fill="#ffffff"/>
    <circle cx="7.1" cy="131.4" r="4.4" fill="#ffffff"/>
    <circle cx="13.0" cy="134.8" r="4.4" fill="#ffffff"/>
    <circle cx="18.9" cy="131.4" r="4.4" fill="#ffffff"/>
    <circle cx="18.9" cy="124.6" r="4.4" fill="#ffffff"/>
    <circle cx="13.0" cy="128.0" r="3.4" fill="#b89a47"/>
<circle cx="40.0" cy="121.2" r="4.4" fill="#ffffff"/>
    <circle cx="34.1" cy="124.6" r="4.4" fill="#ffffff"/>
    <circle cx="34.1" cy="131.4" r="4.4" fill="#ffffff"/>
    <circle cx="40.0" cy="134.8" r="4.4" fill="#ffffff"/>
    <circle cx="45.9" cy="131.4" r="4.4" fill="#ffffff"/>
    <circle cx="45.9" cy="124.6" r="4.4" fill="#ffffff"/>
    <circle cx="40.0" cy="128.0" r="3.4" fill="#b89a47"/>
<circle cx="67.0" cy="121.2" r="4.4" fill="#ffffff"/>
    <circle cx="61.1" cy="124.6" r="4.4" fill="#ffffff"/>
    <circle cx="61.1" cy="131.4" r="4.4" fill="#ffffff"/>
    <circle cx="67.0" cy="134.8" r="4.4" fill="#ffffff"/>
    <circle cx="72.9" cy="131.4" r="4.4" fill="#ffffff"/>
    <circle cx="72.9" cy="124.6" r="4.4" fill="#ffffff"/>
    <circle cx="67.0" cy="128.0" r="3.4" fill="#b89a47"/>
<rect x="0" y="32" width="80" height="80" fill="#ffffff"/>
<path d="M0,32 h80 v80 h-80Z M76.0,72.0 A36.0,36.0 0 1,0 4.0,72.0 A36.0,36.0 0 1,0 76.0,72.0Z" fill="#b89a47" fill-rule="evenodd"/>
<circle cx="40.0" cy="72.0" r="36.0" fill="none" stroke="#b89a47" stroke-width="1.5"/>
<path d="M 27.25,59.25 A 15.12,15.12 0 1,1 52.75,59.25 A 15.12,15.12 0 1,1 52.75,84.75 A 15.12,15.12 0 1,1 27.25,84.75 A 15.12,15.12 0 1,1 27.25,59.25 Z" fill="#ffffff" stroke="#b89a47" stroke-width="1.2"/>
<circle cx="40.0" cy="72.0" r="10.1" fill="#b89a47"/>
<circle cx="40.0" cy="66.2" r="3.8" fill="#ffffff"/>
    <circle cx="35.0" cy="69.1" r="3.8" fill="#ffffff"/>
    <circle cx="35.0" cy="74.9" r="3.8" fill="#ffffff"/>
    <circle cx="40.0" cy="77.8" r="3.8" fill="#ffffff"/>
    <circle cx="45.0" cy="74.9" r="3.8" fill="#ffffff"/>
    <circle cx="45.0" cy="69.1" r="3.8" fill="#ffffff"/>
    <circle cx="40.0" cy="72.0" r="2.9" fill="#b89a47"/>
<rect x="80" y="0" width="3" height="144" fill="#b89a47"/>
<rect x="26.5" y="3" width="1.0" height="26" fill="#b89a47"/>
<rect x="26.5" y="115" width="1.0" height="26" fill="#b89a47"/>
<rect x="53.5" y="3" width="1.0" height="26" fill="#b89a47"/>
<rect x="53.5" y="115" width="1.0" height="26" fill="#b89a47"/>
</svg>